<mxfile host="app.diagrams.net" agent="Mozilla/5.0 (X11; Linux x86_64) AppleWebKit/537.36 (KHTML, like Gecko) Chrome/134.0.0.0 Safari/537.36" version="26.2.9">
  <diagram name="第 1 页" id="A7rx9CSq9qLI3sRifqEV">
    <mxGraphModel dx="2101" dy="1186" grid="1" gridSize="10" guides="1" tooltips="1" connect="1" arrows="1" fold="1" page="1" pageScale="1" pageWidth="827" pageHeight="1169" math="0" shadow="0">
      <root>
        <mxCell id="0" />
        <mxCell id="1" parent="0" />
        <mxCell id="hYxvOrtwlnF50_84aDHa-1" value="" style="rounded=0;whiteSpace=wrap;html=1;dashed=1;" parent="1" vertex="1">
          <mxGeometry x="90" y="67" width="140" height="263" as="geometry" />
        </mxCell>
        <mxCell id="hYxvOrtwlnF50_84aDHa-2" value="" style="rounded=0;whiteSpace=wrap;html=1;" parent="1" vertex="1">
          <mxGeometry x="110" y="88" width="100" height="40" as="geometry" />
        </mxCell>
        <mxCell id="hYxvOrtwlnF50_84aDHa-3" value="内存" style="rounded=1;whiteSpace=wrap;html=1;" parent="1" vertex="1">
          <mxGeometry x="160" y="98" width="40" height="20" as="geometry" />
        </mxCell>
        <mxCell id="hYxvOrtwlnF50_84aDHa-4" value="" style="rounded=0;whiteSpace=wrap;html=1;" parent="1" vertex="1">
          <mxGeometry x="110" y="160" width="100" height="60" as="geometry" />
        </mxCell>
        <mxCell id="hYxvOrtwlnF50_84aDHa-5" value="应用" style="text;html=1;align=center;verticalAlign=middle;whiteSpace=wrap;rounded=0;" parent="1" vertex="1">
          <mxGeometry x="100" y="93" width="60" height="30" as="geometry" />
        </mxCell>
        <mxCell id="hYxvOrtwlnF50_84aDHa-6" value="内核" style="text;html=1;align=center;verticalAlign=middle;resizable=0;points=[];autosize=1;strokeColor=none;fillColor=none;" parent="1" vertex="1">
          <mxGeometry x="105" y="175" width="50" height="30" as="geometry" />
        </mxCell>
        <mxCell id="hYxvOrtwlnF50_84aDHa-7" value="" style="rounded=0;whiteSpace=wrap;html=1;" parent="1" vertex="1">
          <mxGeometry x="110" y="260" width="105" height="40" as="geometry" />
        </mxCell>
        <mxCell id="hYxvOrtwlnF50_84aDHa-8" value="内存" style="rounded=1;whiteSpace=wrap;html=1;" parent="1" vertex="1">
          <mxGeometry x="160" y="270" width="40" height="20" as="geometry" />
        </mxCell>
        <mxCell id="hYxvOrtwlnF50_84aDHa-10" value="" style="shape=flexArrow;endArrow=classic;startArrow=classic;html=1;rounded=0;endWidth=10.980392156862745;endSize=4.125490196078432;startWidth=10.980392156862745;startSize=4.125490196078432;entryX=0.5;entryY=1;entryDx=0;entryDy=0;" parent="1" source="hYxvOrtwlnF50_84aDHa-8" target="hYxvOrtwlnF50_84aDHa-3" edge="1">
          <mxGeometry width="100" height="100" relative="1" as="geometry">
            <mxPoint x="189.57" y="260" as="sourcePoint" />
            <mxPoint x="189.57" y="200" as="targetPoint" />
          </mxGeometry>
        </mxCell>
        <mxCell id="hYxvOrtwlnF50_84aDHa-11" value="" style="rounded=0;whiteSpace=wrap;html=1;dashed=1;" parent="1" vertex="1">
          <mxGeometry x="330" y="67" width="140" height="263" as="geometry" />
        </mxCell>
        <mxCell id="hYxvOrtwlnF50_84aDHa-12" value="" style="rounded=0;whiteSpace=wrap;html=1;" parent="1" vertex="1">
          <mxGeometry x="350" y="88" width="100" height="40" as="geometry" />
        </mxCell>
        <mxCell id="hYxvOrtwlnF50_84aDHa-13" value="内存" style="rounded=1;whiteSpace=wrap;html=1;" parent="1" vertex="1">
          <mxGeometry x="400" y="98" width="40" height="20" as="geometry" />
        </mxCell>
        <mxCell id="hYxvOrtwlnF50_84aDHa-14" value="" style="rounded=0;whiteSpace=wrap;html=1;" parent="1" vertex="1">
          <mxGeometry x="350" y="160" width="100" height="60" as="geometry" />
        </mxCell>
        <mxCell id="hYxvOrtwlnF50_84aDHa-15" value="应用" style="text;html=1;align=center;verticalAlign=middle;whiteSpace=wrap;rounded=0;" parent="1" vertex="1">
          <mxGeometry x="345" y="93" width="60" height="30" as="geometry" />
        </mxCell>
        <mxCell id="hYxvOrtwlnF50_84aDHa-16" value="内核" style="text;html=1;align=center;verticalAlign=middle;resizable=0;points=[];autosize=1;strokeColor=none;fillColor=none;" parent="1" vertex="1">
          <mxGeometry x="350" y="175" width="50" height="30" as="geometry" />
        </mxCell>
        <mxCell id="hYxvOrtwlnF50_84aDHa-17" value="" style="rounded=0;whiteSpace=wrap;html=1;" parent="1" vertex="1">
          <mxGeometry x="350" y="260" width="100" height="40" as="geometry" />
        </mxCell>
        <mxCell id="hYxvOrtwlnF50_84aDHa-18" value="内存" style="rounded=1;whiteSpace=wrap;html=1;" parent="1" vertex="1">
          <mxGeometry x="400" y="270" width="40" height="20" as="geometry" />
        </mxCell>
        <mxCell id="hYxvOrtwlnF50_84aDHa-20" value="" style="shape=flexArrow;endArrow=classic;startArrow=classic;html=1;rounded=0;endWidth=10.980392156862745;endSize=4.125490196078432;startWidth=10.980392156862745;startSize=4.125490196078432;exitX=0.5;exitY=0;exitDx=0;exitDy=0;entryX=0.5;entryY=1;entryDx=0;entryDy=0;" parent="1" source="hYxvOrtwlnF50_84aDHa-18" target="hYxvOrtwlnF50_84aDHa-13" edge="1">
          <mxGeometry width="100" height="100" relative="1" as="geometry">
            <mxPoint x="434.57" y="260" as="sourcePoint" />
            <mxPoint x="434.57" y="200" as="targetPoint" />
          </mxGeometry>
        </mxCell>
        <mxCell id="hYxvOrtwlnF50_84aDHa-23" value="" style="shape=flexArrow;endArrow=classic;startArrow=classic;html=1;rounded=0;" parent="1" edge="1">
          <mxGeometry width="100" height="100" relative="1" as="geometry">
            <mxPoint x="230" y="279.5" as="sourcePoint" />
            <mxPoint x="330" y="280" as="targetPoint" />
          </mxGeometry>
        </mxCell>
        <mxCell id="hYxvOrtwlnF50_84aDHa-24" value="RDMA" style="text;html=1;align=center;verticalAlign=middle;resizable=0;points=[];autosize=1;strokeColor=none;fillColor=none;" parent="1" vertex="1">
          <mxGeometry x="250" y="250" width="60" height="30" as="geometry" />
        </mxCell>
        <mxCell id="hYxvOrtwlnF50_84aDHa-25" value="主机A" style="text;html=1;align=center;verticalAlign=middle;resizable=0;points=[];autosize=1;strokeColor=none;fillColor=none;" parent="1" vertex="1">
          <mxGeometry x="130" y="28" width="60" height="30" as="geometry" />
        </mxCell>
        <mxCell id="hYxvOrtwlnF50_84aDHa-26" value="主机B" style="text;html=1;align=center;verticalAlign=middle;resizable=0;points=[];autosize=1;strokeColor=none;fillColor=none;" parent="1" vertex="1">
          <mxGeometry x="375" y="28" width="60" height="30" as="geometry" />
        </mxCell>
        <mxCell id="R5BLzerzn6uCQzTJT_C_-1" value="网卡" style="text;html=1;align=center;verticalAlign=middle;resizable=0;points=[];autosize=1;strokeColor=none;fillColor=none;" vertex="1" parent="1">
          <mxGeometry x="105" y="265" width="50" height="30" as="geometry" />
        </mxCell>
        <mxCell id="R5BLzerzn6uCQzTJT_C_-2" value="网卡" style="text;html=1;align=center;verticalAlign=middle;resizable=0;points=[];autosize=1;strokeColor=none;fillColor=none;" vertex="1" parent="1">
          <mxGeometry x="350" y="265" width="50" height="30" as="geometry" />
        </mxCell>
      </root>
    </mxGraphModel>
  </diagram>
</mxfile>
